# xmcd
#
# Track frame offsets:
#	150
#	16955
#	39885
#	54195
#	71787
#	93897
#	113952
#	130267
#	153120
#	172512
#	190832
#	204657
#	222865
#	242430
#	260150
#	276230
#
# Disc length: 3928 seconds
#
# Revision: 1
# Processed by: cddbd v1.5.2PL0 Copyright (c) Steve Scherf et al.
# Submitted via: audiograbber 1.83.01
#
DISCID=d30f5610
DTITLE=Various Artist - Free Luv
DYEAR=1900
DGENRE=Country
TTITLE0=2 Unlimited - Get Ready for This
TTITLE1=Los Del Mar - Macarena
TTITLE2=Ace of Base - The Sign
TTITLE3=Shaggy - Boombastic
TTITLE4=Brandy - I Wanna Be Down
TTITLE5=Janet Jackson - That's the Way Love Goes
TTITLE6=Xscape - Who Can I Run To
TTITLE7=Brownstone - If You Love Me
TTITLE8=Vanessa Williams - Colors of the Wind
TTITLE9=Coolio - Gangsta's Paradise
TTITLE10=Lisa Loed and Nine Stories - Stay (I Missed You)
TTITLE11=Elton John - Can You Feel the Love Tonight
TTITLE12=Vince Gilll - Whenever You Come Around
TTITLE13=John Berry - Your Love Amazes Me
TTITLE14=George Strait - Baby Blue
TTITLE15=John Michael Montgomery - Rope the Moon
EXTD=ID3G: 2
EXTT0=
EXTT1=
EXTT2=
EXTT3=
EXTT4=
EXTT5=
EXTT6=
EXTT7=
EXTT8=
EXTT9=
EXTT10=
EXTT11=
EXTT12=
EXTT13=
EXTT14=
EXTT15=
PLAYORDER=
